HIERARCHY
ROOT Hips
{
  OFFSET 0 0 0
  CHANNELS 6 Xposition Yposition Zposition Zrotation Yrotation Xrotation
  JOINT LeftThigh
  {
    OFFSET 8.409438 0 -5.917753
    CHANNELS 3 Zrotation Yrotation Xrotation
    JOINT LeftLeg
    {
      OFFSET 0 0 -42.358652
      CHANNELS 3 Zrotation Yrotation Xrotation
      JOINT LeftFoot
      {
        OFFSET 0 0 -39.357303
        CHANNELS 3 Zrotation Yrotation Xrotation
      }
    }
  }
  JOINT RightThigh
  {
    OFFSET -8.409438 0 -5.917753
    CHANNELS 3 Zrotation Yrotation Xrotation
    JOINT RightLeg
    {
      OFFSET 0 0 -42.358652
      CHANNELS 3 Zrotation Yrotation Xrotation
      JOINT RightFoot
      {
        OFFSET 0 0 -39.357303
        CHANNELS 3 Zrotation Yrotation Xrotation
      }
    }
  }
  JOINT SpineLow
  {
    OFFSET 0 0 4.719101
    CHANNELS 3 Zrotation Yrotation Xrotation
    JOINT SpineMid
    {
      OFFSET 0 0 12.899191
      CHANNELS 3 Zrotation Yrotation Xrotation
      JOINT Chest
      {
        OFFSET 0 0 12.899191
        CHANNELS 3 Zrotation Yrotation Xrotation
        JOINT LeftShoulder
        {
          OFFSET 7.550562 1.41573 9.438202
          CHANNELS 3 Zrotation Yrotation Xrotation
          JOINT LeftArm
          {
            OFFSET 9.155056 0 4.247191
            CHANNELS 3 Zrotation Yrotation Xrotation
            JOINT LeftForearm
            {
              OFFSET 0 0 25.771955
              CHANNELS 3 Zrotation Yrotation Xrotation
              JOINT LeftHand
              {
                OFFSET 0 0 25.197169
                CHANNELS 3 Zrotation Yrotation Xrotation
              }
            }
          }
        }
        JOINT RightShoulder
        {
          OFFSET -7.550562 1.41573 9.438202
          CHANNELS 3 Zrotation Yrotation Xrotation
          JOINT RightArm
          {
            OFFSET -9.155056 0 4.247191
            CHANNELS 3 Zrotation Yrotation Xrotation
            JOINT RightForearm
            {
              OFFSET 0 0 -25.771955
              CHANNELS 3 Zrotation Yrotation Xrotation
              JOINT RightHand
              {
                OFFSET 0 0 -25.197169
                CHANNELS 3 Zrotation Yrotation Xrotation
              }
            }
          }
        }
        JOINT Neck
        {
          OFFSET 0 0 15.101124
          CHANNELS 3 Zrotation Yrotation Xrotation
          JOINT Head
          {
            OFFSET 0 0 11.325843
            CHANNELS 3 Zrotation Yrotation Xrotation
            End Site
            {
              OFFSET 0 0 14.157303
            }
          }
        }
      }
    }
  }
}
MOTION
Frames: 14
Frame Time: 0.0
0.0  101.685394  0.0  -6.800377  9.261003  -116.359958  15.040141  -21.292655  -5.235287  -20.204716  18.199143  37.707181  -6.620575  1.328175  -2.388069  8.593797  -8.945894  -81.618327  15.510346  24.203482  111.79514  3.589933  -1.33846  -4.520769  -2.238168  -0.223404  5.100265  -6.133557  -0.1367  13.948017  -6.133556  -0.1367  13.948016  -4.151322  25.505369  12.219993  110.586617  49.016085  168.888126  -4.934356  -2.108331  119.071722  76.776008  11.033426  -36.264736  17.099392  -4.680265  18.078982  5.269259  70.088686  -35.650248  -26.121953  -6.017582  -93.569067  50.228518  2.384158  16.578311  -4.383638  0.790642  1.785272  -3.290019  0.580217  1.344686  
0.0  101.685394  0.0  -6.59916  8.2979  -117.835462  14.830694  -21.625325  -3.888962  -20.301035  18.399439  38.244545  -6.450786  1.398947  -2.459784  9.224878  -8.656992  -83.248534  14.696161  26.407283  103.56931  4.93476  -5.180024  -2.729909  -2.107557  -0.257113  5.264104  -5.785279  -0.2414  14.398799  -5.785279  -0.2414  14.398797  -4.985322  26.201426  12.933506  110.92195  50.242621  168.903738  -7.700965  -0.887941  117.870007  77.459343  9.043928  -33.763971  16.061111  -4.4011  18.717371  5.373815  70.174485  -36.487782  -26.382869  -6.168217  -93.21151  48.462111  2.400871  15.74795  -5.083115  1.113623  2.299364  -3.81647  0.816174  1.733874  
0.0  101.685394  0.0  -6.104165  7.231864  -118.952177  14.131158  -21.329401  -2.563102  -19.783917  18.225526  38.825905  -6.066604  1.447312  -2.462459  10.092734  -8.393171  -84.337973  11.842682  27.281622  93.564613  4.68097  -8.223328  -1.096938  -1.961963  -0.241602  5.395273  -5.385935  -0.220176  14.755928  -5.385935  -0.220176  14.755928  -5.729602  26.785794  13.435355  111.365358  51.374857  169.040536  -7.59806  -0.040742  118.589747  78.477156  7.992398  -33.858419  14.723462  -4.306884  18.975469  7.630143  70.466816  -35.86911  -26.931798  -6.355488  -92.685875  48.216519  3.078639  16.18387  -5.778779  1.350885  2.74321  -4.340051  0.987354  2.070307  
0.0  101.685394  0.0  -5.449112  6.146993  -119.700181  12.855151  -20.570906  -1.555965  -18.068032  18.006636  39.893387  -5.808836  1.159001  -2.477923  10.752354  -8.693939  -84.215543  8.475034  26.311745  82.344692  3.551982  -10.802525  -0.67002  -1.844753  -0.199415  5.510532  -5.057688  -0.122853  15.067633  -5.057688  -0.122853  15.067632  -6.304839  27.419665  13.695147  112.036184  52.549193  169.323541  -7.417532  0.919988  119.335251  79.62839  7.018141  -33.870935  13.609827  -4.344953  18.802879  11.103865  70.60842  -34.20245  -27.322097  -6.720038  -92.330238  48.330411  3.884289  16.135013  -6.322142  1.569766  2.948736  -4.749015  1.146998  2.227939  
0.0  101.685394  0.0  -4.791397  5.096128  -120.098014  11.177884  -19.544435  -1.003157  -16.266282  17.697867  40.79696  -5.267133  1.139707  -2.320845  11.069768  -10.626211  -82.932541  7.151835  23.64709  69.779082  1.494016  -13.38752  -0.802401  -1.771155  -0.134812  5.578335  -4.842703  0.040817  15.24828  -4.842703  0.040817  15.24828  -6.476031  28.017818  14.141208  112.896638  53.846237  169.810077  -7.17384  1.835155  120.10168  80.865648  6.234957  -33.955005  12.812717  -4.585009  18.675056  14.219969  70.507239  -32.863338  -27.151913  -7.494516  -92.264659  48.52092  4.507406  15.586633  -6.635491  1.769077  3.012387  -4.985087  1.29432  2.278642  
0.0  101.685394  0.0  -4.197646  4.197126  -120.365346  9.383916  -18.343078  -0.692296  -14.573381  17.193046  41.700876  -4.770922  1.295633  -2.230081  10.893392  -13.677947  -80.438446  8.447602  20.19909  55.586834  -1.629353  -16.036752  -0.708615  -1.770296  -0.046522  5.618322  -4.819755  0.283236  15.351126  -4.819755  0.283236  15.351126  -6.089906  28.555631  14.873273  113.862172  55.122553  170.518345  -6.978275  2.422977  120.783665  82.07169  5.683498  -34.212933  12.353293  -4.849279  18.981028  15.603505  70.137758  -33.159959  -26.321788  -8.559449  -92.565223  48.525681  4.692213  15.056792  -6.688343  1.934609  3.027049  -5.02551  1.418074  2.291576  
0.0  101.685394  0.0  -3.691324  3.598786  -120.558694  7.658952  -17.03186  -0.545192  -13.125481  16.649112  42.449842  -4.113446  1.471607  -2.0396  10.156046  -15.879939  -76.683643  10.338438  16.866911  38.977894  -5.830085  -17.823301  0.799473  -1.849566  0.048909  5.610134  -5.013188  0.560017  15.320988  -5.013188  0.560017  15.320987  -5.200416  29.061688  15.969289  114.920887  56.175108  171.484738  -6.918237  2.609518  121.340048  83.112381  5.210828  -34.573609  12.089521  -4.995308  19.813595  15.886466  69.484874  -34.291185  -25.183553  -9.70744  -93.140819  48.287525  4.890083  14.911297  -6.620827  2.107922  3.164826  -4.976136  1.546922  2.396531  
0.0  101.685394  0.0  -3.320156  3.550002  -120.545134  5.9818  -15.688387  -0.740119  -11.772269  16.156425  43.164169  -2.895354  1.631839  -1.564361  8.516574  -14.33297  -72.417936  10.390337  11.388512  22.897752  -12.104116  -17.054738  2.437534  -2.021735  0.152928  5.514968  -5.458762  0.874315  15.050471  -5.458762  0.874315  15.050471  -3.983581  29.386465  17.429914  116.28799  56.879295  172.882479  -6.941733  2.628661  121.801803  83.900389  4.502108  -34.18232  11.931464  -5.050669  21.0163  16.403703  68.420722  -34.88587  -24.138194  -10.593963  -93.909815  47.984781  5.456795  15.107358  -6.572699  2.268005  3.554544  -4.942273  1.663074  2.690331  
0.0  101.685394  0.0  -2.948306  3.969632  -120.253205  4.80517  -14.338148  -1.132858  -10.751531  15.672827  43.740558  -2.792644  1.689986  -1.518921  8.188995  -5.098609  -69.68088  4.579928  5.560676  12.016466  -17.944812  -17.286024  1.545112  -2.252837  0.28088  5.36011  -6.061791  1.259988  14.612099  -6.06179  1.259988  14.612098  -2.700503  29.329659  18.734824  118.023109  57.020233  174.737568  -6.949286  2.823824  122.214846  84.691359  3.659219  -34.230874  11.953834  -5.117807  22.022162  17.952616  66.784588  -34.120679  -23.387372  -10.786325  -94.64166  47.69014  6.194173  15.30441  -6.635535  2.353444  4.046309  -4.991797  1.721485  3.060297  
0.0  101.685394  0.0  -2.452009  4.60861  -119.874557  4.609626  -13.022423  -1.360863  -10.033948  14.844372  44.168186  -3.577746  1.883119  -1.737632  9.169885  3.583542  -67.648499  -2.305175  1.804004  -0.171286  -26.526876  -15.398081  6.262993  -2.491947  0.419138  5.191689  -6.687016  1.671136  14.133137  -6.687016  1.671135  14.133136  -1.488948  29.08721  19.774883  119.929859  56.757657  176.846659  -6.843139  3.429765  122.590893  85.509269  2.583637  -34.211718  10.137447  -5.424286  21.648747  25.048959  65.06044  -28.913589  -22.066024  -10.876856  -95.625034  48.105603  7.096179  15.987943  -6.834805  2.446037  4.570501  -5.143965  1.783801  3.455236  
0.0  101.685394  0.0  -1.996894  4.978771  -119.67309  6.086833  -12.669274  -0.932623  -10.262468  14.284308  43.995221  -5.000009  2.272211  -2.209172  17.582062  7.493518  -63.180637  -12.967381  5.736503  -8.819384  -29.295029  -13.68291  8.260514  -2.628309  0.488583  5.043777  -7.048414  1.873167  13.718133  -7.048414  1.873167  13.718132  -0.667935  28.784631  20.498072  121.709342  56.065527  178.941479  -6.642372  4.424153  122.91819  86.48553  1.432316  -34.41422  9.845863  -5.482062  21.69216  27.972074  62.506929  -26.218204  -21.173783  -10.36076  -96.229503  47.946287  7.66159  15.973816  -7.275505  2.681032  5.116183  -5.478542  1.950365  3.869023  
0.0  101.685394  0.0  -1.668348  4.197873  -120.003932  9.143868  -14.204867  0.204313  -11.248166  14.726608  43.446912  -6.916661  2.698988  -2.917167  22.670672  11.482424  -64.922342  -25.835341  6.899587  -9.268656  -26.852386  -10.031468  11.474258  -2.480344  0.46576  4.939671  -6.653844  1.770336  13.440878  -6.653844  1.770336  13.440878  -0.040246  28.238295  21.35202  122.845128  54.992737  -179.307536  -6.361807  5.497507  123.250446  87.659515  0.488791  -34.994811  8.706962  -5.648728  21.348708  31.644414  59.675007  -22.632417  -19.95401  -10.215289  -97.021316  47.755489  8.129858  15.863835  -7.941271  3.038676  5.744414  -5.983762  2.205049  4.347686  
0.0  101.685394  0.0  -1.183808  2.297037  -120.384963  12.070478  -16.633515  0.712116  -11.674246  16.501089  43.422013  -7.992711  2.751584  -3.433364  24.642344  5.804027  -70.925138  -29.053825  12.627438  -4.158229  -17.785723  -8.482298  13.787053  -2.082512  0.421492  4.967764  -5.579367  1.571898  13.533298  -5.579368  1.571898  13.533297  0.083774  27.233318  21.173733  123.481735  53.553072  -177.90615  -6.055662  6.171626  123.679539  88.815159  0.044116  -35.770212  7.264611  -5.780504  20.600381  33.850242  57.087671  -20.576206  -18.315376  -10.574511  -98.03376  47.52442  8.547659  15.803904  -8.650364  3.193657  5.81431  -6.517194  2.313758  4.405892  
0.0  101.685394  0.0  -0.487799  0.466957  -120.713928  13.795482  -18.576983  0.628218  -12.725387  20.072642  43.184046  -6.263594  2.374034  -3.088196  21.311641  -3.060711  -76.000541  -23.556478  15.76173  5.382108  -9.507327  -9.476415  14.069328  -1.77379  0.421307  5.093607  -4.736065  1.517366  13.885538  -4.736065  1.517366  13.885539  0.176911  26.315877  20.071073  124.345463  51.894943  -176.577611  -5.833914  6.179942  124.262254  89.744056  0.037554  -36.290976  6.423411  -5.292477  19.85065  34.360543  54.885358  -20.864403  -16.427904  -11.015732  -98.904036  47.246441  8.923368  15.96035  -8.971488  3.203887  5.203039  -6.754735  2.327344  3.949347  
